<mxfile host="65bd71144e">
    <diagram id="Ie4MABcG4xMAcV1RFWYR" name="Page-1">
        <mxGraphModel dx="1810" dy="563" grid="1" gridSize="10" guides="1" tooltips="1" connect="1" arrows="1" fold="1" page="1" pageScale="1" pageWidth="850" pageHeight="1100" math="0" shadow="0">
            <root>
                <mxCell id="0"/>
                <mxCell id="1" parent="0"/>
                <mxCell id="2" value="&lt;div&gt;Ticket&lt;/div&gt;&lt;div&gt;&lt;br&gt;&lt;/div&gt;" style="swimlane;fontStyle=1;align=center;verticalAlign=top;childLayout=stackLayout;horizontal=1;startSize=26;horizontalStack=0;resizeParent=1;resizeParentMax=0;resizeLast=0;collapsible=1;marginBottom=0;whiteSpace=wrap;html=1;" parent="1" vertex="1">
                    <mxGeometry x="530" y="490" width="240" height="110" as="geometry"/>
                </mxCell>
                <mxCell id="3" value="- id : String&lt;div&gt;- parkingSpot : ParkingSpot&lt;/div&gt;&lt;div&gt;- vehicle : Vehicle&lt;/div&gt;&lt;div&gt;- entryTime: long&lt;/div&gt;&lt;div&gt;&lt;br&gt;&lt;/div&gt;&lt;div&gt;&lt;br&gt;&lt;/div&gt;" style="text;strokeColor=none;fillColor=none;align=left;verticalAlign=top;spacingLeft=4;spacingRight=4;overflow=hidden;rotatable=0;points=[[0,0.5],[1,0.5]];portConstraint=eastwest;whiteSpace=wrap;html=1;" parent="2" vertex="1">
                    <mxGeometry y="26" width="240" height="84" as="geometry"/>
                </mxCell>
                <mxCell id="6" value="&lt;div&gt;Vehicle&lt;/div&gt;&lt;div&gt;&lt;br&gt;&lt;/div&gt;" style="swimlane;fontStyle=1;align=center;verticalAlign=top;childLayout=stackLayout;horizontal=1;startSize=26;horizontalStack=0;resizeParent=1;resizeParentMax=0;resizeLast=0;collapsible=1;marginBottom=0;whiteSpace=wrap;html=1;" parent="1" vertex="1">
                    <mxGeometry x="-220" y="190" width="170" height="70" as="geometry"/>
                </mxCell>
                <mxCell id="7" value="- vehicleNo : String&lt;div&gt;- vehicleType: VehicleType&lt;/div&gt;&lt;div&gt;&lt;br&gt;&lt;/div&gt;&lt;div&gt;&lt;br&gt;&lt;/div&gt;&lt;div&gt;&lt;br&gt;&lt;/div&gt;" style="text;strokeColor=none;fillColor=none;align=left;verticalAlign=top;spacingLeft=4;spacingRight=4;overflow=hidden;rotatable=0;points=[[0,0.5],[1,0.5]];portConstraint=eastwest;whiteSpace=wrap;html=1;" parent="6" vertex="1">
                    <mxGeometry y="26" width="170" height="44" as="geometry"/>
                </mxCell>
                <mxCell id="8" value="&lt;div&gt;&amp;lt;&amp;lt;enum&amp;gt;&amp;gt;&lt;/div&gt;&lt;div&gt;VehicleType&lt;/div&gt;" style="swimlane;fontStyle=1;align=center;verticalAlign=top;childLayout=stackLayout;horizontal=1;startSize=26;horizontalStack=0;resizeParent=1;resizeParentMax=0;resizeLast=0;collapsible=1;marginBottom=0;whiteSpace=wrap;html=1;" parent="1" vertex="1">
                    <mxGeometry x="-220" y="310" width="170" height="80" as="geometry"/>
                </mxCell>
                <mxCell id="9" value="&lt;div&gt;- BIKE&lt;/div&gt;&lt;div&gt;- CAR&lt;/div&gt;&lt;div&gt;- TRUCK&lt;/div&gt;" style="text;strokeColor=none;fillColor=none;align=left;verticalAlign=top;spacingLeft=4;spacingRight=4;overflow=hidden;rotatable=0;points=[[0,0.5],[1,0.5]];portConstraint=eastwest;whiteSpace=wrap;html=1;" parent="8" vertex="1">
                    <mxGeometry y="26" width="170" height="54" as="geometry"/>
                </mxCell>
                <mxCell id="10" value="&lt;div&gt;&lt;span style=&quot;background-color: transparent;&quot;&gt;ParkingSpot&lt;/span&gt;&lt;/div&gt;" style="swimlane;fontStyle=1;align=center;verticalAlign=top;childLayout=stackLayout;horizontal=1;startSize=26;horizontalStack=0;resizeParent=1;resizeParentMax=0;resizeLast=0;collapsible=1;marginBottom=0;whiteSpace=wrap;html=1;" parent="1" vertex="1">
                    <mxGeometry x="90" y="200" width="290" height="150" as="geometry"/>
                </mxCell>
                <mxCell id="11" value="&lt;div&gt;- id: String&lt;/div&gt;&lt;div&gt;- spotType: VehicleType&lt;/div&gt;&lt;div&gt;- isAvailable: boolean&lt;/div&gt;&lt;div&gt;- vehicle: Vehicle&lt;/div&gt;&lt;div&gt;&lt;br&gt;&lt;/div&gt;&lt;div&gt;+ assignVehicle(Vehicle vehicle) : boolean&lt;/div&gt;&lt;div&gt;+ removeVehicle(Vehicle vehicle) : booelan&lt;/div&gt;" style="text;strokeColor=none;fillColor=none;align=left;verticalAlign=top;spacingLeft=4;spacingRight=4;overflow=hidden;rotatable=0;points=[[0,0.5],[1,0.5]];portConstraint=eastwest;whiteSpace=wrap;html=1;" parent="10" vertex="1">
                    <mxGeometry y="26" width="290" height="124" as="geometry"/>
                </mxCell>
                <mxCell id="13" value="&lt;div&gt;&lt;span style=&quot;background-color: transparent;&quot;&gt;ParkingFloor&lt;/span&gt;&lt;/div&gt;" style="swimlane;fontStyle=1;align=center;verticalAlign=top;childLayout=stackLayout;horizontal=1;startSize=26;horizontalStack=0;resizeParent=1;resizeParentMax=0;resizeLast=0;collapsible=1;marginBottom=0;whiteSpace=wrap;html=1;" parent="1" vertex="1">
                    <mxGeometry x="100" y="470" width="300" height="110" as="geometry"/>
                </mxCell>
                <mxCell id="14" value="&lt;div&gt;- floorNo: String&lt;/div&gt;&lt;div&gt;- parkingSpots: Map&amp;lt;VehicleType, List&amp;lt;ParkingSpot&amp;gt;&lt;/div&gt;&lt;div&gt;&lt;br&gt;&lt;/div&gt;&lt;div&gt;+ getAvailableSpots() :&amp;nbsp;&lt;span style=&quot;color: rgb(63, 63, 63); background-color: transparent;&quot;&gt;List&amp;lt;ParkingSpot&amp;gt;&lt;br&gt;&lt;/span&gt;&lt;/div&gt;" style="text;strokeColor=none;fillColor=none;align=left;verticalAlign=top;spacingLeft=4;spacingRight=4;overflow=hidden;rotatable=0;points=[[0,0.5],[1,0.5]];portConstraint=eastwest;whiteSpace=wrap;html=1;" parent="13" vertex="1">
                    <mxGeometry y="26" width="300" height="84" as="geometry"/>
                </mxCell>
                <mxCell id="15" value="&lt;div&gt;&lt;span style=&quot;background-color: transparent;&quot;&gt;ParkingLot&lt;/span&gt;&lt;/div&gt;" style="swimlane;fontStyle=1;align=center;verticalAlign=top;childLayout=stackLayout;horizontal=1;startSize=26;horizontalStack=0;resizeParent=1;resizeParentMax=0;resizeLast=0;collapsible=1;marginBottom=0;whiteSpace=wrap;html=1;" parent="1" vertex="1">
                    <mxGeometry x="-340" y="480" width="340" height="160" as="geometry"/>
                </mxCell>
                <mxCell id="16" value="&lt;div&gt;- floors : List&amp;lt;ParkingFloor&amp;gt;&lt;/div&gt;&lt;div&gt;- spotManager : SpotManager&lt;/div&gt;&lt;div&gt;- entryGates : List&amp;lt;EntryGate&amp;gt;&lt;/div&gt;&lt;div&gt;- exitGates : List&amp;lt;ExitGate&amp;gt;&lt;/div&gt;&lt;div&gt;&lt;br&gt;&lt;/div&gt;&lt;div&gt;&lt;br&gt;&lt;/div&gt;&lt;div&gt;+ parkVehicle(Vehicle vehicle, EntryGate entryGate) : Ticket&lt;span style=&quot;color: rgb(63, 63, 63); background-color: transparent;&quot;&gt;&lt;br&gt;&lt;/span&gt;&lt;/div&gt;&lt;div&gt;+ unparkVehicle(Ticket ticket, ExitGate exitGate) : void&lt;/div&gt;" style="text;strokeColor=none;fillColor=none;align=left;verticalAlign=top;spacingLeft=4;spacingRight=4;overflow=hidden;rotatable=0;points=[[0,0.5],[1,0.5]];portConstraint=eastwest;whiteSpace=wrap;html=1;" parent="15" vertex="1">
                    <mxGeometry y="26" width="340" height="134" as="geometry"/>
                </mxCell>
                <mxCell id="17" value="&lt;div&gt;&lt;span style=&quot;background-color: transparent;&quot;&gt;&amp;lt;&amp;lt;interface&amp;gt;&amp;gt;&lt;/span&gt;&lt;/div&gt;&lt;div&gt;&lt;span style=&quot;background-color: transparent;&quot;&gt;FeeStrategy&lt;/span&gt;&lt;/div&gt;" style="swimlane;fontStyle=1;align=center;verticalAlign=top;childLayout=stackLayout;horizontal=1;startSize=26;horizontalStack=0;resizeParent=1;resizeParentMax=0;resizeLast=0;collapsible=1;marginBottom=0;whiteSpace=wrap;html=1;" parent="1" vertex="1">
                    <mxGeometry x="360" y="770" width="220" height="60" as="geometry"/>
                </mxCell>
                <mxCell id="18" value="&lt;div&gt;&lt;span style=&quot;background-color: transparent;&quot;&gt;+ calculateFee(Ticket ticket) : double&lt;/span&gt;&lt;/div&gt;&lt;div&gt;&lt;br&gt;&lt;/div&gt;" style="text;strokeColor=none;fillColor=none;align=left;verticalAlign=top;spacingLeft=4;spacingRight=4;overflow=hidden;rotatable=0;points=[[0,0.5],[1,0.5]];portConstraint=eastwest;whiteSpace=wrap;html=1;" parent="17" vertex="1">
                    <mxGeometry y="26" width="220" height="34" as="geometry"/>
                </mxCell>
                <mxCell id="19" value="&lt;div&gt;HourlyRateStrategy&lt;/div&gt;" style="swimlane;fontStyle=1;align=center;verticalAlign=top;childLayout=stackLayout;horizontal=1;startSize=26;horizontalStack=0;resizeParent=1;resizeParentMax=0;resizeLast=0;collapsible=1;marginBottom=0;whiteSpace=wrap;html=1;" parent="1" vertex="1">
                    <mxGeometry x="360" y="950" width="220" height="60" as="geometry"/>
                </mxCell>
                <mxCell id="20" value="&lt;div&gt;&lt;span style=&quot;background-color: transparent;&quot;&gt;+ calculateFee(Ticket ticket) : double&lt;/span&gt;&lt;/div&gt;&lt;div&gt;&lt;br&gt;&lt;/div&gt;" style="text;strokeColor=none;fillColor=none;align=left;verticalAlign=top;spacingLeft=4;spacingRight=4;overflow=hidden;rotatable=0;points=[[0,0.5],[1,0.5]];portConstraint=eastwest;whiteSpace=wrap;html=1;" parent="19" vertex="1">
                    <mxGeometry y="26" width="220" height="34" as="geometry"/>
                </mxCell>
                <mxCell id="22" style="edgeStyle=none;html=1;exitX=0.5;exitY=0;exitDx=0;exitDy=0;dashed=1;entryX=0.505;entryY=1.012;entryDx=0;entryDy=0;entryPerimeter=0;" parent="1" source="19" target="18" edge="1">
                    <mxGeometry relative="1" as="geometry">
                        <mxPoint x="276" y="970" as="sourcePoint"/>
                        <mxPoint x="274" y="880" as="targetPoint"/>
                    </mxGeometry>
                </mxCell>
                <mxCell id="23" value="&lt;div&gt;&lt;span style=&quot;background-color: transparent;&quot;&gt;SpotManager&lt;/span&gt;&lt;/div&gt;" style="swimlane;fontStyle=1;align=center;verticalAlign=top;childLayout=stackLayout;horizontal=1;startSize=26;horizontalStack=0;resizeParent=1;resizeParentMax=0;resizeLast=0;collapsible=1;marginBottom=0;whiteSpace=wrap;html=1;" parent="1" vertex="1">
                    <mxGeometry x="-790" y="480" width="340" height="100" as="geometry"/>
                </mxCell>
                <mxCell id="24" value="&lt;div&gt;- spotAssignmentStrategy : SpotAssignmentStrategy&lt;/div&gt;&lt;div&gt;&lt;br&gt;&lt;/div&gt;&lt;div&gt;+ assignSpot(Vehicle vehicle) : ParkingSpot&lt;/div&gt;&lt;div&gt;+ freeSpot(Parking Spot) : void&lt;/div&gt;&lt;div&gt;&lt;br&gt;&lt;/div&gt;&lt;div&gt;&lt;br&gt;&lt;/div&gt;&lt;div&gt;&lt;br&gt;&lt;/div&gt;" style="text;strokeColor=none;fillColor=none;align=left;verticalAlign=top;spacingLeft=4;spacingRight=4;overflow=hidden;rotatable=0;points=[[0,0.5],[1,0.5]];portConstraint=eastwest;whiteSpace=wrap;html=1;" parent="23" vertex="1">
                    <mxGeometry y="26" width="340" height="74" as="geometry"/>
                </mxCell>
                <mxCell id="25" value="&lt;div&gt;&lt;span style=&quot;background-color: transparent;&quot;&gt;&amp;lt;&amp;lt;interface&amp;gt;&amp;gt;&lt;/span&gt;&lt;/div&gt;&lt;div&gt;&lt;span style=&quot;background-color: transparent;&quot;&gt;SpotAssigmentStrategy&lt;/span&gt;&lt;/div&gt;" style="swimlane;fontStyle=1;align=center;verticalAlign=top;childLayout=stackLayout;horizontal=1;startSize=26;horizontalStack=0;resizeParent=1;resizeParentMax=0;resizeLast=0;collapsible=1;marginBottom=0;whiteSpace=wrap;html=1;" parent="1" vertex="1">
                    <mxGeometry x="-815" y="720" width="370" height="80" as="geometry"/>
                </mxCell>
                <mxCell id="26" value="&lt;div&gt;&lt;span style=&quot;background-color: transparent;&quot;&gt;+ findSpot(Vehicle vehicle, List&amp;lt;ParkingFoor&amp;gt; floors) : ParkingSpot&lt;/span&gt;&lt;/div&gt;&lt;div&gt;&lt;br&gt;&lt;/div&gt;" style="text;strokeColor=none;fillColor=none;align=left;verticalAlign=top;spacingLeft=4;spacingRight=4;overflow=hidden;rotatable=0;points=[[0,0.5],[1,0.5]];portConstraint=eastwest;whiteSpace=wrap;html=1;" parent="25" vertex="1">
                    <mxGeometry y="26" width="370" height="54" as="geometry"/>
                </mxCell>
                <mxCell id="27" value="&lt;div&gt;FirstFindStrategy&lt;/div&gt;" style="swimlane;fontStyle=1;align=center;verticalAlign=top;childLayout=stackLayout;horizontal=1;startSize=26;horizontalStack=0;resizeParent=1;resizeParentMax=0;resizeLast=0;collapsible=1;marginBottom=0;whiteSpace=wrap;html=1;" parent="1" vertex="1">
                    <mxGeometry x="-815" y="880" width="365" height="70" as="geometry"/>
                </mxCell>
                <mxCell id="28" value="&lt;div&gt;&lt;div&gt;&lt;span style=&quot;background-color: transparent;&quot;&gt;+ findSpot(Vehicle vehicle, List&amp;lt;ParkingFoor&amp;gt; floors) : ParkingSpot&lt;/span&gt;&lt;/div&gt;&lt;div&gt;&lt;br style=&quot;color: rgb(63, 63, 63);&quot;&gt;&lt;/div&gt;&lt;/div&gt;" style="text;strokeColor=none;fillColor=none;align=left;verticalAlign=top;spacingLeft=4;spacingRight=4;overflow=hidden;rotatable=0;points=[[0,0.5],[1,0.5]];portConstraint=eastwest;whiteSpace=wrap;html=1;" parent="27" vertex="1">
                    <mxGeometry y="26" width="365" height="44" as="geometry"/>
                </mxCell>
                <mxCell id="29" style="edgeStyle=none;html=1;entryX=0.514;entryY=1.03;entryDx=0;entryDy=0;entryPerimeter=0;dashed=1;exitX=0.523;exitY=-0.011;exitDx=0;exitDy=0;exitPerimeter=0;" parent="1" source="27" target="26" edge="1">
                    <mxGeometry relative="1" as="geometry">
                        <mxPoint x="-630" y="870" as="sourcePoint"/>
                    </mxGeometry>
                </mxCell>
                <mxCell id="33" value="" style="endArrow=diamondThin;endFill=0;endSize=24;html=1;" parent="1" edge="1">
                    <mxGeometry width="160" relative="1" as="geometry">
                        <mxPoint x="-50" y="240" as="sourcePoint"/>
                        <mxPoint x="90" y="240" as="targetPoint"/>
                    </mxGeometry>
                </mxCell>
                <mxCell id="34" value="" style="html=1;startArrow=diamondThin;startFill=1;edgeStyle=elbowEdgeStyle;elbow=vertical;startSize=10;endArrow=none;endFill=0;exitX=0.5;exitY=0;exitDx=0;exitDy=0;entryX=0.555;entryY=0.984;entryDx=0;entryDy=0;entryPerimeter=0;" parent="1" source="13" target="11" edge="1">
                    <mxGeometry width="160" relative="1" as="geometry">
                        <mxPoint x="100" y="380" as="sourcePoint"/>
                        <mxPoint x="233" y="350" as="targetPoint"/>
                    </mxGeometry>
                </mxCell>
                <mxCell id="35" value="" style="html=1;startArrow=diamondThin;startFill=1;edgeStyle=elbowEdgeStyle;elbow=vertical;startSize=10;endArrow=none;endFill=0;entryX=1.002;entryY=0.176;entryDx=0;entryDy=0;entryPerimeter=0;exitX=0;exitY=0.286;exitDx=0;exitDy=0;exitPerimeter=0;" parent="1" source="14" target="16" edge="1">
                    <mxGeometry width="160" relative="1" as="geometry">
                        <mxPoint x="70" y="510" as="sourcePoint"/>
                        <mxPoint x="70" y="620" as="targetPoint"/>
                    </mxGeometry>
                </mxCell>
                <mxCell id="36" value="" style="html=1;labelBackgroundColor=#ffffff;jettySize=auto;orthogonalLoop=1;fontSize=14;rounded=0;jumpStyle=gap;edgeStyle=orthogonalEdgeStyle;startArrow=none;endArrow=open;dashed=1;strokeWidth=1;entryX=0;entryY=0.25;entryDx=0;entryDy=0;exitX=0.223;exitY=-0.01;exitDx=0;exitDy=0;exitPerimeter=0;" parent="1" source="15" target="6" edge="1">
                    <mxGeometry width="48" height="48" relative="1" as="geometry">
                        <mxPoint x="-310" y="418" as="sourcePoint"/>
                        <mxPoint x="-262" y="370" as="targetPoint"/>
                    </mxGeometry>
                </mxCell>
                <mxCell id="37" style="edgeStyle=none;html=1;exitX=0.5;exitY=0;exitDx=0;exitDy=0;entryX=0.498;entryY=0.964;entryDx=0;entryDy=0;entryPerimeter=0;" parent="1" source="8" target="7" edge="1">
                    <mxGeometry relative="1" as="geometry"/>
                </mxCell>
                <mxCell id="38" value="" style="html=1;labelBackgroundColor=#ffffff;jettySize=auto;orthogonalLoop=1;fontSize=14;rounded=0;jumpStyle=gap;edgeStyle=orthogonalEdgeStyle;startArrow=none;endArrow=open;dashed=1;strokeWidth=1;exitX=0.558;exitY=-0.03;exitDx=0;exitDy=0;exitPerimeter=0;" parent="1" source="25" edge="1">
                    <mxGeometry width="48" height="48" relative="1" as="geometry">
                        <mxPoint x="650" y="510" as="sourcePoint"/>
                        <mxPoint x="-620" y="580" as="targetPoint"/>
                        <Array as="points">
                            <mxPoint x="-608" y="650"/>
                            <mxPoint x="-620" y="650"/>
                        </Array>
                    </mxGeometry>
                </mxCell>
                <mxCell id="39" value="" style="html=1;labelBackgroundColor=#ffffff;jettySize=auto;orthogonalLoop=1;fontSize=14;rounded=0;jumpStyle=gap;edgeStyle=orthogonalEdgeStyle;startArrow=none;endArrow=open;dashed=1;strokeWidth=1;" parent="1" edge="1">
                    <mxGeometry width="48" height="48" relative="1" as="geometry">
                        <mxPoint x="580" y="799.5" as="sourcePoint"/>
                        <mxPoint x="630" y="600" as="targetPoint"/>
                    </mxGeometry>
                </mxCell>
                <mxCell id="40" value="" style="html=1;labelBackgroundColor=#ffffff;jettySize=auto;orthogonalLoop=1;fontSize=14;rounded=0;jumpStyle=gap;edgeStyle=orthogonalEdgeStyle;startArrow=none;endArrow=open;dashed=1;strokeWidth=1;exitX=0.444;exitY=-0.025;exitDx=0;exitDy=0;exitPerimeter=0;entryX=0.997;entryY=0.229;entryDx=0;entryDy=0;entryPerimeter=0;" parent="1" source="2" target="11" edge="1">
                    <mxGeometry width="48" height="48" relative="1" as="geometry">
                        <mxPoint x="610" y="448" as="sourcePoint"/>
                        <mxPoint x="658" y="400" as="targetPoint"/>
                    </mxGeometry>
                </mxCell>
                <mxCell id="41" value="" style="html=1;labelBackgroundColor=#ffffff;jettySize=auto;orthogonalLoop=1;fontSize=14;rounded=0;jumpStyle=gap;edgeStyle=orthogonalEdgeStyle;startArrow=none;endArrow=open;dashed=1;strokeWidth=1;entryX=0.5;entryY=0;entryDx=0;entryDy=0;" parent="1" target="6" edge="1">
                    <mxGeometry width="48" height="48" relative="1" as="geometry">
                        <mxPoint x="550" y="250" as="sourcePoint"/>
                        <mxPoint x="718" y="410" as="targetPoint"/>
                        <Array as="points">
                            <mxPoint x="550" y="170"/>
                            <mxPoint x="-135" y="170"/>
                        </Array>
                    </mxGeometry>
                </mxCell>
                <mxCell id="42" value="&lt;div&gt;EntryGate&lt;/div&gt;&lt;div&gt;&lt;br&gt;&lt;/div&gt;" style="swimlane;fontStyle=1;align=center;verticalAlign=top;childLayout=stackLayout;horizontal=1;startSize=26;horizontalStack=0;resizeParent=1;resizeParentMax=0;resizeLast=0;collapsible=1;marginBottom=0;whiteSpace=wrap;html=1;" parent="1" vertex="1">
                    <mxGeometry x="-760" y="220" width="240" height="90" as="geometry"/>
                </mxCell>
                <mxCell id="43" value="- gateId: String&lt;div&gt;&lt;br&gt;&lt;/div&gt;&lt;div&gt;+ generateTicket(Vehicle vehicle) : Ticket&lt;/div&gt;" style="text;strokeColor=none;fillColor=none;align=left;verticalAlign=top;spacingLeft=4;spacingRight=4;overflow=hidden;rotatable=0;points=[[0,0.5],[1,0.5]];portConstraint=eastwest;whiteSpace=wrap;html=1;" parent="42" vertex="1">
                    <mxGeometry y="26" width="240" height="64" as="geometry"/>
                </mxCell>
                <mxCell id="44" value="&lt;div&gt;ExitGate&lt;/div&gt;&lt;div&gt;&lt;br&gt;&lt;/div&gt;" style="swimlane;fontStyle=1;align=center;verticalAlign=top;childLayout=stackLayout;horizontal=1;startSize=26;horizontalStack=0;resizeParent=1;resizeParentMax=0;resizeLast=0;collapsible=1;marginBottom=0;whiteSpace=wrap;html=1;" parent="1" vertex="1">
                    <mxGeometry x="-480" y="220" width="190" height="90" as="geometry"/>
                </mxCell>
                <mxCell id="45" value="- gateId: String&lt;div&gt;&lt;br&gt;&lt;/div&gt;&lt;div&gt;+ processExit(Ticket ticket) : void&lt;/div&gt;" style="text;strokeColor=none;fillColor=none;align=left;verticalAlign=top;spacingLeft=4;spacingRight=4;overflow=hidden;rotatable=0;points=[[0,0.5],[1,0.5]];portConstraint=eastwest;whiteSpace=wrap;html=1;" parent="44" vertex="1">
                    <mxGeometry y="26" width="190" height="64" as="geometry"/>
                </mxCell>
                <mxCell id="46" value="" style="html=1;startArrow=diamondThin;startFill=1;edgeStyle=elbowEdgeStyle;elbow=vertical;startSize=10;endArrow=none;endFill=0;exitX=0.152;exitY=-0.015;exitDx=0;exitDy=0;exitPerimeter=0;" parent="1" source="15" edge="1">
                    <mxGeometry width="160" relative="1" as="geometry">
                        <mxPoint x="-290" y="470" as="sourcePoint"/>
                        <mxPoint x="-400" y="310" as="targetPoint"/>
                    </mxGeometry>
                </mxCell>
                <mxCell id="47" value="" style="html=1;startArrow=diamondThin;startFill=1;edgeStyle=elbowEdgeStyle;elbow=vertical;startSize=10;endArrow=none;endFill=0;" parent="1" edge="1">
                    <mxGeometry width="160" relative="1" as="geometry">
                        <mxPoint x="-290" y="440" as="sourcePoint"/>
                        <mxPoint x="-650" y="310" as="targetPoint"/>
                        <Array as="points">
                            <mxPoint x="-490" y="440"/>
                        </Array>
                    </mxGeometry>
                </mxCell>
                <mxCell id="48" value="" style="html=1;labelBackgroundColor=#ffffff;jettySize=auto;orthogonalLoop=1;fontSize=14;rounded=0;jumpStyle=gap;edgeStyle=orthogonalEdgeStyle;startArrow=none;endArrow=open;dashed=1;strokeWidth=1;exitX=0.5;exitY=0;exitDx=0;exitDy=0;entryX=1.004;entryY=0.19;entryDx=0;entryDy=0;entryPerimeter=0;" parent="1" source="42" target="3" edge="1">
                    <mxGeometry width="48" height="48" relative="1" as="geometry">
                        <mxPoint x="-644.25" y="158" as="sourcePoint"/>
                        <mxPoint x="810" y="70" as="targetPoint"/>
                        <Array as="points">
                            <mxPoint x="-640" y="50"/>
                            <mxPoint x="790" y="50"/>
                            <mxPoint x="790" y="532"/>
                        </Array>
                    </mxGeometry>
                </mxCell>
                <mxCell id="49" value="" style="html=1;labelBackgroundColor=#ffffff;jettySize=auto;orthogonalLoop=1;fontSize=14;rounded=0;jumpStyle=gap;edgeStyle=orthogonalEdgeStyle;startArrow=none;endArrow=open;dashed=1;strokeWidth=1;" parent="1" edge="1">
                    <mxGeometry width="48" height="48" relative="1" as="geometry">
                        <mxPoint x="-390" y="220" as="sourcePoint"/>
                        <mxPoint x="-390" y="50" as="targetPoint"/>
                        <Array as="points">
                            <mxPoint x="-390" y="158"/>
                            <mxPoint x="-390" y="159"/>
                            <mxPoint x="-361" y="159"/>
                        </Array>
                    </mxGeometry>
                </mxCell>
                <mxCell id="50" style="edgeStyle=none;html=1;" parent="1" edge="1">
                    <mxGeometry relative="1" as="geometry">
                        <mxPoint x="-70" y="310" as="sourcePoint"/>
                        <mxPoint x="90" y="290" as="targetPoint"/>
                        <Array as="points">
                            <mxPoint x="-70" y="290"/>
                        </Array>
                    </mxGeometry>
                </mxCell>
                <mxCell id="51" value="" style="html=1;labelBackgroundColor=#ffffff;jettySize=auto;orthogonalLoop=1;fontSize=14;rounded=0;jumpStyle=gap;edgeStyle=orthogonalEdgeStyle;startArrow=none;endArrow=open;dashed=1;strokeWidth=1;exitX=-0.003;exitY=0.278;exitDx=0;exitDy=0;exitPerimeter=0;" parent="1" source="16" target="24" edge="1">
                    <mxGeometry width="48" height="48" relative="1" as="geometry">
                        <mxPoint x="-420" y="568" as="sourcePoint"/>
                        <mxPoint x="-372" y="520" as="targetPoint"/>
                    </mxGeometry>
                </mxCell>
                <mxCell id="53" value="" style="html=1;labelBackgroundColor=#ffffff;jettySize=auto;orthogonalLoop=1;fontSize=14;rounded=0;jumpStyle=gap;edgeStyle=orthogonalEdgeStyle;startArrow=none;endArrow=open;dashed=1;strokeWidth=1;entryX=0.25;entryY=0;entryDx=0;entryDy=0;exitX=0.643;exitY=1.006;exitDx=0;exitDy=0;exitPerimeter=0;" parent="1" source="45" target="17" edge="1">
                    <mxGeometry width="48" height="48" relative="1" as="geometry">
                        <mxPoint y="628" as="sourcePoint"/>
                        <mxPoint x="48" y="580" as="targetPoint"/>
                        <Array as="points">
                            <mxPoint x="-270" y="310"/>
                            <mxPoint x="-270" y="430"/>
                            <mxPoint x="415" y="430"/>
                        </Array>
                    </mxGeometry>
                </mxCell>
            </root>
        </mxGraphModel>
    </diagram>
</mxfile>